<svg width="350" height="49" viewBox="0 0 350 49" fill="none" xmlns="http://www.w3.org/2000/svg">
<g clip-path="url(#clip0_1365_52)">
<path d="M9.42614 8.67175H8.19318C8.12027 8.31711 7.99266 8.00556 7.81037 7.73709C7.63139 7.46863 7.41264 7.24325 7.15412 7.06096C6.89891 6.87535 6.61553 6.73615 6.30398 6.64334C5.99242 6.55054 5.66761 6.50414 5.32955 6.50414C4.71307 6.50414 4.15459 6.65992 3.65412 6.97147C3.15696 7.28302 2.76089 7.74207 2.46591 8.3486C2.17424 8.95513 2.02841 9.69921 2.02841 10.5808C2.02841 11.4625 2.17424 12.2066 2.46591 12.8131C2.76089 13.4196 3.15696 13.8787 3.65412 14.1902C4.15459 14.5018 4.71307 14.6575 5.32955 14.6575C5.66761 14.6575 5.99242 14.6111 6.30398 14.5183C6.61553 14.4255 6.89891 14.288 7.15412 14.1057C7.41264 13.9201 7.63139 13.6931 7.81037 13.4246C7.99266 13.1528 8.12027 12.8413 8.19318 12.4899H9.42614C9.33333 13.0103 9.1643 13.476 8.91903 13.887C8.67377 14.2979 8.36885 14.6476 8.00426 14.936C7.63968 15.221 7.23035 15.4381 6.77628 15.5872C6.32552 15.7364 5.84328 15.811 5.32955 15.811C4.46117 15.811 3.68892 15.5988 3.01278 15.1746C2.33665 14.7504 1.80469 14.1471 1.4169 13.3649C1.02912 12.5827 0.835227 11.6547 0.835227 10.5808C0.835227 9.50698 1.02912 8.57895 1.4169 7.79675C1.80469 7.01456 2.33665 6.41134 3.01278 5.98709C3.68892 5.56285 4.46117 5.35073 5.32955 5.35073C5.84328 5.35073 6.32552 5.4253 6.77628 5.57445C7.23035 5.7236 7.63968 5.94235 8.00426 6.2307C8.36885 6.51574 8.67377 6.86375 8.91903 7.27474C9.1643 7.68241 9.33333 8.14808 9.42614 8.67175ZM14.3617 15.8308C13.6723 15.8308 13.0674 15.6668 12.5471 15.3387C12.03 15.0105 11.6257 14.5515 11.334 13.9615C11.0456 13.3716 10.9015 12.6822 10.9015 11.8933C10.9015 11.0979 11.0456 10.4035 11.334 9.81025C11.6257 9.21697 12.03 8.75627 12.5471 8.42815C13.0674 8.10002 13.6723 7.93596 14.3617 7.93596C15.0511 7.93596 15.6543 8.10002 16.1713 8.42815C16.6917 8.75627 17.0961 9.21697 17.3844 9.81025C17.6761 10.4035 17.8219 11.0979 17.8219 11.8933C17.8219 12.6822 17.6761 13.3716 17.3844 13.9615C17.0961 14.5515 16.6917 15.0105 16.1713 15.3387C15.6543 15.6668 15.0511 15.8308 14.3617 15.8308ZM14.3617 14.7769C14.8854 14.7769 15.3162 14.6426 15.6543 14.3742C15.9924 14.1057 16.2426 13.7527 16.405 13.3152C16.5674 12.8777 16.6486 12.4038 16.6486 11.8933C16.6486 11.3829 16.5674 10.9073 16.405 10.4665C16.2426 10.0257 15.9924 9.66939 15.6543 9.3976C15.3162 9.12582 14.8854 8.98993 14.3617 8.98993C13.838 8.98993 13.4071 9.12582 13.0691 9.3976C12.731 9.66939 12.4808 10.0257 12.3184 10.4665C12.156 10.9073 12.0748 11.3829 12.0748 11.8933C12.0748 12.4038 12.156 12.8777 12.3184 13.3152C12.4808 13.7527 12.731 14.1057 13.0691 14.3742C13.4071 14.6426 13.838 14.7769 14.3617 14.7769ZM19.6129 18.5354V8.03539H20.7464V9.24846H20.8857C20.9718 9.11588 21.0911 8.94685 21.2436 8.74135C21.3994 8.53255 21.6214 8.34694 21.9098 8.18454C22.2015 8.01882 22.5959 7.93596 23.093 7.93596C23.736 7.93596 24.3028 8.09671 24.7933 8.4182C25.2839 8.7397 25.6667 9.19543 25.9418 9.78539C26.2169 10.3754 26.3544 11.0714 26.3544 11.8735C26.3544 12.6822 26.2169 13.3832 25.9418 13.9764C25.6667 14.5664 25.2855 15.0238 24.7983 15.3486C24.3111 15.6701 23.7493 15.8308 23.1129 15.8308C22.6224 15.8308 22.2296 15.7496 21.9347 15.5872C21.6397 15.4215 21.4126 15.2343 21.2536 15.0254C21.0945 14.8133 20.9718 14.6377 20.8857 14.4985H20.7862V18.5354H19.6129ZM20.7663 11.8536C20.7663 12.4303 20.8509 12.939 21.0199 13.3798C21.1889 13.8173 21.4358 14.1604 21.7607 14.409C22.0855 14.6542 22.4832 14.7769 22.9538 14.7769C23.4444 14.7769 23.8537 14.6476 24.1818 14.3891C24.5133 14.1272 24.7618 13.7759 24.9276 13.3351C25.0966 12.891 25.1811 12.3971 25.1811 11.8536C25.1811 11.3166 25.0982 10.8327 24.9325 10.4019C24.7701 9.96768 24.5232 9.62464 24.1918 9.37275C23.8636 9.11754 23.451 8.98993 22.9538 8.98993C22.4766 8.98993 22.0755 9.11091 21.7507 9.35286C21.4259 9.5915 21.1806 9.92625 21.0149 10.3571C20.8492 10.7847 20.7663 11.2835 20.7663 11.8536ZM28.6264 18.5354C28.4276 18.5354 28.2502 18.5188 28.0945 18.4857C27.9387 18.4558 27.831 18.426 27.7713 18.3962L28.0696 17.3621C28.3546 17.435 28.6065 17.4615 28.8253 17.4416C29.044 17.4218 29.2379 17.324 29.407 17.1483C29.5793 16.976 29.7367 16.6959 29.8793 16.3081L30.098 15.7115L27.2741 8.03539H28.5469L30.6548 14.1206H30.7344L32.8423 8.03539H34.1151L30.8736 16.7854C30.7277 17.1798 30.5471 17.5063 30.3317 17.7648C30.1162 18.0266 29.866 18.2205 29.581 18.3465C29.2992 18.4724 28.9811 18.5354 28.6264 18.5354ZM35.6637 15.6718V8.03539H36.7972V9.1888H36.8768C37.016 8.81096 37.2679 8.50438 37.6325 8.26905C37.997 8.03373 38.408 7.91607 38.8654 7.91607C38.9516 7.91607 39.0593 7.91773 39.1886 7.92104C39.3178 7.92436 39.4156 7.92933 39.4819 7.93596V9.12914C39.4421 9.1192 39.351 9.10428 39.2085 9.08439C39.0692 9.06119 38.9218 9.04959 38.766 9.04959C38.3948 9.04959 38.0633 9.12748 37.7717 9.28326C37.4833 9.43572 37.2546 9.64784 37.0856 9.91962C36.9199 10.1881 36.837 10.4947 36.837 10.8394V15.6718H35.6637ZM40.8727 15.6718V8.03539H42.046V15.6718H40.8727ZM41.4693 6.76266C41.2406 6.76266 41.0434 6.68477 40.8777 6.529C40.7153 6.37322 40.6341 6.18596 40.6341 5.96721C40.6341 5.74846 40.7153 5.56119 40.8777 5.40542C41.0434 5.24964 41.2406 5.17175 41.4693 5.17175C41.698 5.17175 41.8935 5.24964 42.0559 5.40542C42.2217 5.56119 42.3045 5.74846 42.3045 5.96721C42.3045 6.18596 42.2217 6.37322 42.0559 6.529C41.8935 6.68477 41.698 6.76266 41.4693 6.76266ZM47.2773 18.6945C46.7106 18.6945 46.2234 18.6216 45.8157 18.4757C45.408 18.3332 45.0683 18.1443 44.7965 17.909C44.5281 17.677 44.3143 17.4284 44.1552 17.1632L45.0898 16.507C45.1959 16.6462 45.3301 16.8053 45.4925 16.9843C45.6549 17.1665 45.877 17.324 46.1587 17.4566C46.4438 17.5924 46.8166 17.6604 47.2773 17.6604C47.8938 17.6604 48.4026 17.5112 48.8036 17.2129C49.2047 16.9147 49.4052 16.4473 49.4052 15.811V14.2598H49.3058C49.2196 14.399 49.0969 14.5714 48.9379 14.7769C48.7821 14.979 48.5567 15.1597 48.2617 15.3188C47.9701 15.4745 47.5756 15.5524 47.0785 15.5524C46.462 15.5524 45.9085 15.4066 45.418 15.1149C44.9308 14.8233 44.5446 14.399 44.2596 13.8422C43.9779 13.2854 43.837 12.6093 43.837 11.8138C43.837 11.0316 43.9746 10.3505 44.2496 9.77047C44.5247 9.18714 44.9076 8.73638 45.3981 8.4182C45.8886 8.09671 46.4554 7.93596 47.0984 7.93596C47.5955 7.93596 47.9899 8.01882 48.2816 8.18454C48.5766 8.34694 48.802 8.53255 48.9577 8.74135C49.1168 8.94685 49.2395 9.11588 49.3256 9.24846H49.445V8.03539H50.5785V15.8905C50.5785 16.5468 50.4293 17.0804 50.131 17.4914C49.8361 17.9057 49.4383 18.2089 48.9379 18.4012C48.4407 18.5967 47.8872 18.6945 47.2773 18.6945ZM47.2376 14.4985C47.7082 14.4985 48.1059 14.3907 48.4308 14.1753C48.7556 13.9599 49.0025 13.65 49.1715 13.2456C49.3406 12.8413 49.4251 12.3574 49.4251 11.7939C49.4251 11.2437 49.3422 10.7582 49.1765 10.3372C49.0108 9.91631 48.7655 9.58653 48.4407 9.34789C48.1159 9.10925 47.7148 8.98993 47.2376 8.98993C46.7404 8.98993 46.3261 9.11588 45.9947 9.36778C45.6665 9.61967 45.4196 9.95774 45.2539 10.382C45.0915 10.8062 45.0103 11.2769 45.0103 11.7939C45.0103 12.3242 45.0932 12.7932 45.2589 13.2009C45.4279 13.6052 45.6765 13.9234 46.0046 14.1554C46.3361 14.3841 46.747 14.4985 47.2376 14.4985ZM53.8995 11.078V15.6718H52.7262V5.48993H53.8995V9.22857H53.9989C54.1779 8.83416 54.4464 8.52095 54.8043 8.28894C55.1656 8.05362 55.6462 7.93596 56.2461 7.93596C56.7665 7.93596 57.2222 8.04036 57.6133 8.24917C58.0044 8.45466 58.3076 8.77118 58.5231 9.19874C58.7418 9.62298 58.8512 10.1632 58.8512 10.8195V15.6718H57.6779V10.899C57.6779 10.2925 57.5205 9.8235 57.2056 9.49207C56.8941 9.15731 56.4615 8.98993 55.908 8.98993C55.5236 8.98993 55.1789 9.07114 54.8739 9.23354C54.5723 9.39595 54.3337 9.63293 54.158 9.94448C53.9857 10.256 53.8995 10.6339 53.8995 11.078ZM64.3187 8.03539V9.02971H60.3613V8.03539H64.3187ZM61.5147 6.20584H62.688V13.4843C62.688 13.8157 62.7361 14.0643 62.8322 14.23C62.9316 14.3924 63.0576 14.5018 63.21 14.5581C63.3658 14.6111 63.5299 14.6377 63.7022 14.6377C63.8315 14.6377 63.9376 14.631 64.0204 14.6178C64.1033 14.6012 64.1696 14.5879 64.2193 14.578L64.4579 15.632C64.3784 15.6618 64.2673 15.6916 64.1248 15.7215C63.9823 15.7546 63.8017 15.7712 63.5829 15.7712C63.2515 15.7712 62.9267 15.6999 62.6085 15.5574C62.2936 15.4149 62.0318 15.1978 61.823 14.9061C61.6175 14.6145 61.5147 14.2466 61.5147 13.8024V6.20584ZM72.4473 10.5808C72.4473 10.0373 72.5798 9.54178 72.845 9.09434C73.1101 8.64689 73.4664 8.2906 73.9139 8.02545C74.3613 7.76029 74.8568 7.62772 75.4004 7.62772C75.871 7.62772 76.3052 7.72881 76.7029 7.93099C77.104 8.13316 77.4354 8.40992 77.6973 8.76124C77.9591 9.10925 78.1215 9.50367 78.1845 9.94448H76.9814C76.9151 9.6031 76.7311 9.32469 76.4295 9.10925C76.1279 8.8905 75.7849 8.78113 75.4004 8.78113C75.069 8.78113 74.7673 8.86233 74.4956 9.02474C74.2238 9.18714 74.0067 9.40423 73.8443 9.67601C73.6819 9.94779 73.6007 10.2494 73.6007 10.5808C73.6007 10.9123 73.6819 11.2139 73.8443 11.4857C74.0067 11.7575 74.2238 11.9745 74.4956 12.137C74.7673 12.2994 75.069 12.3806 75.4004 12.3806C75.7849 12.3806 76.1097 12.2728 76.3748 12.0574C76.6433 11.8387 76.8123 11.5586 76.8819 11.2172H78.085C78.0221 11.658 77.868 12.0541 77.6227 12.4054C77.3774 12.7534 77.0626 13.0285 76.6781 13.2307C76.2969 13.4329 75.871 13.534 75.4004 13.534C74.8568 13.534 74.3613 13.4014 73.9139 13.1362C73.4664 12.8711 73.1101 12.5148 72.845 12.0673C72.5798 11.6199 72.4473 11.1244 72.4473 10.5808ZM75.3507 15.8308C74.6281 15.8308 73.9487 15.695 73.3123 15.4232C72.6793 15.1514 72.1208 14.7752 71.6369 14.2946C71.1563 13.8107 70.7785 13.2522 70.5034 12.6192C70.2316 11.9861 70.0974 11.3067 70.1007 10.5808C70.104 9.85499 70.2415 9.17554 70.5133 8.54249C70.7884 7.90944 71.1663 7.35262 71.6468 6.87204C72.1274 6.38814 72.6842 6.01029 73.3173 5.73851C73.9503 5.46673 74.6281 5.33084 75.3507 5.33084C76.0765 5.33084 76.756 5.46673 77.389 5.73851C78.0254 6.01029 78.5822 6.38814 79.0595 6.87204C79.5401 7.35262 79.9163 7.90944 80.188 8.54249C80.4598 9.17554 80.5974 9.85499 80.6007 10.5808C80.604 11.3067 80.4698 11.9861 80.198 12.6192C79.9262 13.2522 79.55 13.8107 79.0694 14.2946C78.5888 14.7752 78.0304 15.1514 77.394 15.4232C76.7576 15.695 76.0765 15.8308 75.3507 15.8308ZM75.3507 14.6774C75.9174 14.6774 76.4494 14.5714 76.9466 14.3593C77.4437 14.1471 77.8796 13.8538 78.2541 13.4793C78.6286 13.1048 78.9219 12.6706 79.1341 12.1767C79.3462 11.6796 79.4506 11.1493 79.4473 10.5858C79.444 10.0191 79.3362 9.48709 79.1241 8.98993C78.912 8.49278 78.6187 8.05693 78.2441 7.68241C77.8696 7.30788 77.4354 7.01456 76.9416 6.80243C76.4477 6.59031 75.9174 6.48425 75.3507 6.48425C74.7872 6.48425 74.2586 6.59031 73.7647 6.80243C73.2709 7.01456 72.8367 7.30954 72.4622 7.68738C72.0877 8.0619 71.7927 8.49775 71.5772 8.99491C71.3651 9.48875 71.2574 10.0191 71.2541 10.5858C71.2508 11.1459 71.3552 11.6746 71.5673 12.1718C71.7794 12.6656 72.0727 13.0998 72.4473 13.4743C72.8251 13.8488 73.2609 14.1438 73.7548 14.3593C74.252 14.5714 74.7839 14.6774 75.3507 14.6774ZM86.7493 15.6718V14.7769L90.1101 11.0979C90.5045 10.667 90.8293 10.2925 91.0845 9.97431C91.3397 9.65281 91.5286 9.3512 91.6513 9.06948C91.7772 8.78444 91.8402 8.48615 91.8402 8.17459C91.8402 7.81664 91.754 7.50674 91.5817 7.24491C91.4126 6.98307 91.1806 6.78089 90.8857 6.63837C90.5907 6.49585 90.2592 6.42459 89.8913 6.42459C89.5002 6.42459 89.1589 6.5058 88.8672 6.6682C88.5788 6.82729 88.3551 7.05101 88.196 7.33937C88.0402 7.62772 87.9624 7.96579 87.9624 8.35357H86.7891C86.7891 7.75698 86.9266 7.23331 87.2017 6.78255C87.4768 6.33179 87.8513 5.98046 88.3253 5.72857C88.8026 5.47668 89.3378 5.35073 89.9311 5.35073C90.5277 5.35073 91.0563 5.47668 91.517 5.72857C91.9777 5.98046 92.339 6.32019 92.6009 6.74775C92.8627 7.1753 92.9936 7.65092 92.9936 8.17459C92.9936 8.54912 92.9257 8.91536 92.7898 9.27332C92.6572 9.62796 92.4252 10.024 92.0938 10.4615C91.7656 10.8957 91.3099 11.426 90.7266 12.0524L88.4396 14.4985V14.578H93.1726V15.6718H86.7493ZM98.5469 15.811C97.7978 15.811 97.1598 15.6071 96.6328 15.1995C96.1058 14.7885 95.7031 14.1935 95.4247 13.4147C95.1463 12.6325 95.0071 11.6879 95.0071 10.5808C95.0071 9.48046 95.1463 8.54083 95.4247 7.76195C95.7064 6.97975 96.1108 6.38316 96.6378 5.97218C97.1681 5.55788 97.8045 5.35073 98.5469 5.35073C99.2893 5.35073 99.924 5.55788 100.451 5.97218C100.981 6.38316 101.386 6.97975 101.664 7.76195C101.946 8.54083 102.087 9.48046 102.087 10.5808C102.087 11.6879 101.947 12.6325 101.669 13.4147C101.391 14.1935 100.988 14.7885 100.461 15.1995C99.9339 15.6071 99.2959 15.811 98.5469 15.811ZM98.5469 14.7172C99.2893 14.7172 99.866 14.3593 100.277 13.6433C100.688 12.9274 100.893 11.9066 100.893 10.5808C100.893 9.69921 100.799 8.9485 100.61 8.32871C100.424 7.70892 100.156 7.23662 99.8047 6.91181C99.4567 6.587 99.0374 6.42459 98.5469 6.42459C97.8111 6.42459 97.236 6.78752 96.8217 7.51337C96.4074 8.23591 96.2003 9.2584 96.2003 10.5808C96.2003 11.4625 96.2931 12.2115 96.4787 12.828C96.6643 13.4445 96.9311 13.9135 97.2791 14.235C97.6304 14.5565 98.053 14.7172 98.5469 14.7172ZM103.976 15.6718V14.7769L107.337 11.0979C107.731 10.667 108.056 10.2925 108.311 9.97431C108.566 9.65281 108.755 9.3512 108.878 9.06948C109.004 8.78444 109.067 8.48615 109.067 8.17459C109.067 7.81664 108.981 7.50674 108.808 7.24491C108.639 6.98307 108.407 6.78089 108.112 6.63837C107.817 6.49585 107.486 6.42459 107.118 6.42459C106.727 6.42459 106.385 6.5058 106.094 6.6682C105.805 6.82729 105.582 7.05101 105.423 7.33937C105.267 7.62772 105.189 7.96579 105.189 8.35357H104.016C104.016 7.75698 104.153 7.23331 104.428 6.78255C104.703 6.33179 105.078 5.98046 105.552 5.72857C106.029 5.47668 106.564 5.35073 107.158 5.35073C107.754 5.35073 108.283 5.47668 108.744 5.72857C109.204 5.98046 109.566 6.32019 109.827 6.74775C110.089 7.1753 110.22 7.65092 110.22 8.17459C110.22 8.54912 110.152 8.91536 110.016 9.27332C109.884 9.62796 109.652 10.024 109.32 10.4615C108.992 10.8957 108.536 11.426 107.953 12.0524L105.666 14.4985V14.578H110.399V15.6718H103.976ZM115.773 15.811C115.024 15.811 114.386 15.6071 113.859 15.1995C113.332 14.7885 112.93 14.1935 112.651 13.4147C112.373 12.6325 112.234 11.6879 112.234 10.5808C112.234 9.48046 112.373 8.54083 112.651 7.76195C112.933 6.97975 113.337 6.38316 113.864 5.97218C114.395 5.55788 115.031 5.35073 115.773 5.35073C116.516 5.35073 117.151 5.55788 117.678 5.97218C118.208 6.38316 118.612 6.97975 118.891 7.76195C119.172 8.54083 119.313 9.48046 119.313 10.5808C119.313 11.6879 119.174 12.6325 118.896 13.4147C118.617 14.1935 118.214 14.7885 117.688 15.1995C117.161 15.6071 116.522 15.811 115.773 15.811ZM115.773 14.7172C116.516 14.7172 117.093 14.3593 117.504 13.6433C117.915 12.9274 118.12 11.9066 118.12 10.5808C118.12 9.69921 118.026 8.9485 117.837 8.32871C117.651 7.70892 117.383 7.23662 117.031 6.91181C116.683 6.587 116.264 6.42459 115.773 6.42459C115.038 6.42459 114.463 6.78752 114.048 7.51337C113.634 8.23591 113.427 9.2584 113.427 10.5808C113.427 11.4625 113.52 12.2115 113.705 12.828C113.891 13.4445 114.158 13.9135 114.506 14.235C114.857 14.5565 115.28 14.7172 115.773 14.7172ZM133.393 5.48993V15.6718H132.2L126.651 7.67743H126.552V15.6718H125.319V5.48993H126.512L132.08 13.5041H132.18V5.48993H133.393ZM138.903 15.8308C138.167 15.8308 137.532 15.6684 136.998 15.3436C136.468 15.0155 136.059 14.5581 135.77 13.9715C135.485 13.3815 135.343 12.6954 135.343 11.9132C135.343 11.131 135.485 10.4416 135.77 9.84505C136.059 9.24514 136.46 8.77781 136.974 8.44306C137.491 8.10499 138.094 7.93596 138.783 7.93596C139.181 7.93596 139.574 8.00225 139.961 8.13482C140.349 8.2674 140.702 8.48283 141.02 8.78113C141.339 9.07611 141.592 9.46721 141.781 9.95442C141.97 10.4416 142.064 11.0415 142.064 11.7541V12.2513H136.178V11.2371H140.871C140.871 10.8062 140.785 10.4218 140.613 10.0837C140.444 9.74562 140.202 9.47881 139.887 9.28326C139.575 9.08771 139.207 8.98993 138.783 8.98993C138.316 8.98993 137.912 9.10594 137.57 9.33795C137.232 9.56664 136.972 9.86493 136.79 10.2328C136.607 10.6007 136.516 10.9951 136.516 11.4161V12.0922C136.516 12.6689 136.616 13.1578 136.814 13.5588C137.017 13.9566 137.297 14.2598 137.655 14.4686C138.013 14.6741 138.429 14.7769 138.903 14.7769C139.211 14.7769 139.489 14.7338 139.738 14.6476C139.99 14.5581 140.207 14.4255 140.389 14.2499C140.571 14.0709 140.712 13.8488 140.812 13.5837L141.945 13.9019C141.826 14.2863 141.625 14.6244 141.344 14.9161C141.062 15.2044 140.714 15.4298 140.3 15.5922C139.885 15.7513 139.42 15.8308 138.903 15.8308ZM144.519 8.03539L146.349 11.1575L148.178 8.03539H149.531L147.065 11.8536L149.531 15.6718H148.178L146.349 12.7087L144.519 15.6718H143.167L145.593 11.8536L143.167 8.03539H144.519ZM153.993 15.8308C153.277 15.8308 152.66 15.6618 152.143 15.3237C151.626 14.9857 151.228 14.52 150.95 13.9267C150.672 13.3334 150.532 12.6557 150.532 11.8933C150.532 11.1178 150.675 10.4334 150.96 9.84008C151.248 9.24349 151.649 8.77781 152.163 8.44306C152.68 8.10499 153.283 7.93596 153.973 7.93596C154.51 7.93596 154.993 8.03539 155.424 8.23425C155.855 8.43312 156.208 8.71153 156.483 9.06948C156.758 9.42743 156.929 9.84505 156.995 10.3223H155.822C155.733 9.97431 155.534 9.66607 155.225 9.3976C154.921 9.12582 154.51 8.98993 153.993 8.98993C153.535 8.98993 153.134 9.10925 152.789 9.34789C152.448 9.58321 152.181 9.91631 151.989 10.3472C151.8 10.7747 151.706 11.2769 151.706 11.8536C151.706 12.4435 151.798 12.9573 151.984 13.3948C152.173 13.8323 152.438 14.172 152.779 14.4139C153.124 14.6559 153.529 14.7769 153.993 14.7769C154.297 14.7769 154.574 14.7238 154.823 14.6178C155.071 14.5117 155.282 14.3593 155.454 14.1604C155.627 13.9615 155.749 13.7229 155.822 13.4445H156.995C156.929 13.8952 156.765 14.3013 156.503 14.6625C156.245 15.0205 155.902 15.3055 155.474 15.5176C155.05 15.7264 154.556 15.8308 153.993 15.8308ZM161.912 15.8308C161.176 15.8308 160.542 15.6684 160.008 15.3436C159.478 15.0155 159.069 14.5581 158.78 13.9715C158.495 13.3815 158.353 12.6954 158.353 11.9132C158.353 11.131 158.495 10.4416 158.78 9.84505C159.069 9.24514 159.47 8.77781 159.983 8.44306C160.5 8.10499 161.104 7.93596 161.793 7.93596C162.191 7.93596 162.583 8.00225 162.971 8.13482C163.359 8.2674 163.712 8.48283 164.03 8.78113C164.348 9.07611 164.602 9.46721 164.791 9.95442C164.98 10.4416 165.074 11.0415 165.074 11.7541V12.2513H159.188V11.2371H163.881C163.881 10.8062 163.795 10.4218 163.623 10.0837C163.453 9.74562 163.212 9.47881 162.897 9.28326C162.585 9.08771 162.217 8.98993 161.793 8.98993C161.326 8.98993 160.921 9.10594 160.58 9.33795C160.242 9.56664 159.982 9.86493 159.799 10.2328C159.617 10.6007 159.526 10.9951 159.526 11.4161V12.0922C159.526 12.6689 159.625 13.1578 159.824 13.5588C160.026 13.9566 160.306 14.2598 160.664 14.4686C161.022 14.6741 161.438 14.7769 161.912 14.7769C162.221 14.7769 162.499 14.7338 162.748 14.6476C162.999 14.5581 163.217 14.4255 163.399 14.2499C163.581 14.0709 163.722 13.8488 163.821 13.5837L164.955 13.9019C164.836 14.2863 164.635 14.6244 164.353 14.9161C164.072 15.2044 163.724 15.4298 163.309 15.5922C162.895 15.7513 162.429 15.8308 161.912 15.8308ZM168.032 11.078V15.6718H166.859V8.03539H167.993V9.22857H168.092C168.271 8.84079 168.543 8.52923 168.907 8.29391C169.272 8.05528 169.743 7.93596 170.319 7.93596C170.836 7.93596 171.289 8.04202 171.676 8.25414C172.064 8.46295 172.366 8.78113 172.581 9.20868C172.797 9.63293 172.904 10.1699 172.904 10.8195V15.6718H171.731V10.899C171.731 10.2991 171.575 9.83179 171.264 9.49704C170.952 9.15897 170.525 8.98993 169.981 8.98993C169.607 8.98993 169.272 9.07114 168.977 9.23354C168.685 9.39595 168.455 9.63293 168.286 9.94448C168.117 10.256 168.032 10.6339 168.032 11.078ZM178.369 8.03539V9.02971H174.412V8.03539H178.369ZM175.566 6.20584H176.739V13.4843C176.739 13.8157 176.787 14.0643 176.883 14.23C176.982 14.3924 177.108 14.5018 177.261 14.5581C177.417 14.6111 177.581 14.6377 177.753 14.6377C177.882 14.6377 177.988 14.631 178.071 14.6178C178.154 14.6012 178.22 14.5879 178.27 14.578L178.509 15.632C178.429 15.6618 178.318 15.6916 178.176 15.7215C178.033 15.7546 177.852 15.7712 177.634 15.7712C177.302 15.7712 176.977 15.6999 176.659 15.5574C176.344 15.4149 176.083 15.1978 175.874 14.9061C175.668 14.6145 175.566 14.2466 175.566 13.8024V6.20584ZM185.245 5.48993V15.6718H184.072V5.48993H185.245ZM190.715 8.03539V9.02971H186.758V8.03539H190.715ZM187.911 6.20584H189.085V13.4843C189.085 13.8157 189.133 14.0643 189.229 14.23C189.328 14.3924 189.454 14.5018 189.607 14.5581C189.762 14.6111 189.926 14.6377 190.099 14.6377C190.228 14.6377 190.334 14.631 190.417 14.6178C190.5 14.6012 190.566 14.5879 190.616 14.578L190.854 15.632C190.775 15.6618 190.664 15.6916 190.521 15.7215C190.379 15.7546 190.198 15.7712 189.979 15.7712C189.648 15.7712 189.323 15.6999 189.005 15.5574C188.69 15.4149 188.428 15.1978 188.219 14.9061C188.014 14.6145 187.911 14.2466 187.911 13.8024V6.20584ZM195.282 15.8308C194.645 15.8308 194.083 15.6701 193.596 15.3486C193.109 15.0238 192.728 14.5664 192.453 13.9764C192.178 13.3832 192.04 12.6822 192.04 11.8735C192.04 11.0714 192.178 10.3754 192.453 9.78539C192.728 9.19543 193.111 8.7397 193.601 8.4182C194.092 8.09671 194.658 7.93596 195.301 7.93596C195.799 7.93596 196.191 8.01882 196.48 8.18454C196.771 8.34694 196.993 8.53255 197.146 8.74135C197.302 8.94685 197.423 9.11588 197.509 9.24846H197.608V5.48993H198.782V15.6718H197.648V14.4985H197.509C197.423 14.6377 197.3 14.8133 197.141 15.0254C196.982 15.2343 196.755 15.4215 196.46 15.5872C196.165 15.7496 195.772 15.8308 195.282 15.8308ZM195.441 14.7769C195.911 14.7769 196.309 14.6542 196.634 14.409C196.959 14.1604 197.206 13.8173 197.375 13.3798C197.544 12.939 197.628 12.4303 197.628 11.8536C197.628 11.2835 197.545 10.7847 197.38 10.3571C197.214 9.92625 196.969 9.5915 196.644 9.35286C196.319 9.11091 195.918 8.98993 195.441 8.98993C194.944 8.98993 194.529 9.11754 194.198 9.37275C193.87 9.62464 193.623 9.96768 193.457 10.4019C193.295 10.8327 193.213 11.3166 193.213 11.8536C193.213 12.3971 193.296 12.891 193.462 13.3351C193.631 13.7759 193.88 14.1272 194.208 14.3891C194.539 14.6476 194.95 14.7769 195.441 14.7769ZM201.949 15.7513C201.703 15.7513 201.493 15.6635 201.317 15.4878C201.141 15.3121 201.054 15.1017 201.054 14.8564C201.054 14.6111 201.141 14.4007 201.317 14.225C201.493 14.0494 201.703 13.9615 201.949 13.9615C202.194 13.9615 202.404 14.0494 202.58 14.225C202.756 14.4007 202.843 14.6111 202.843 14.8564C202.843 15.0188 202.802 15.168 202.719 15.3039C202.64 15.4397 202.532 15.5491 202.396 15.632C202.263 15.7115 202.114 15.7513 201.949 15.7513Z" fill="#F5F7FA"/>
<path d="M1.65057 43.6718H0.357955L4.09659 33.4899H5.36932L9.10795 43.6718H7.81534L4.77273 35.1007H4.69318L1.65057 43.6718ZM2.12784 39.6945H7.33807V40.7882H2.12784V39.6945ZM11.7081 33.4899V43.6718H10.5348V33.4899H11.7081ZM15.0304 33.4899V43.6718H13.8571V33.4899H15.0304ZM21.1168 43.6718V36.0354H22.2504V37.1888H22.3299C22.4691 36.811 22.721 36.5044 23.0856 36.2691C23.4502 36.0337 23.8612 35.9161 24.3185 35.9161C24.4047 35.9161 24.5124 35.9177 24.6417 35.921C24.771 35.9244 24.8687 35.9293 24.935 35.936V37.1291C24.8952 37.1192 24.8041 37.1043 24.6616 37.0844C24.5224 37.0612 24.3749 37.0496 24.2191 37.0496C23.8479 37.0496 23.5165 37.1275 23.2248 37.2833C22.9364 37.4357 22.7077 37.6478 22.5387 37.9196C22.373 38.1881 22.2901 38.4947 22.2901 38.8394V43.6718H21.1168ZM26.3258 43.6718V36.0354H27.4991V43.6718H26.3258ZM26.9224 34.7627C26.6937 34.7627 26.4965 34.6848 26.3308 34.529C26.1684 34.3732 26.0872 34.186 26.0872 33.9672C26.0872 33.7485 26.1684 33.5612 26.3308 33.4054C26.4965 33.2496 26.6937 33.1718 26.9224 33.1718C27.1511 33.1718 27.3467 33.2496 27.5091 33.4054C27.6748 33.5612 27.7576 33.7485 27.7576 33.9672C27.7576 34.186 27.6748 34.3732 27.5091 34.529C27.3467 34.6848 27.1511 34.7627 26.9224 34.7627ZM32.7305 46.6945C32.1637 46.6945 31.6765 46.6216 31.2688 46.4757C30.8612 46.3332 30.5214 46.1443 30.2496 45.909C29.9812 45.677 29.7674 45.4284 29.6083 45.1632L30.543 44.507C30.649 44.6462 30.7833 44.8053 30.9457 44.9843C31.1081 45.1665 31.3301 45.324 31.6119 45.4566C31.8969 45.5924 32.2698 45.6604 32.7305 45.6604C33.3469 45.6604 33.8557 45.5112 34.2567 45.2129C34.6578 44.9147 34.8583 44.4473 34.8583 43.811V42.2598H34.7589C34.6727 42.399 34.5501 42.5714 34.391 42.7769C34.2352 42.979 34.0098 43.1597 33.7148 43.3188C33.4232 43.4745 33.0288 43.5524 32.5316 43.5524C31.9151 43.5524 31.3616 43.4066 30.8711 43.1149C30.3839 42.8233 29.9978 42.399 29.7127 41.8422C29.431 41.2854 29.2901 40.6093 29.2901 39.8138C29.2901 39.0316 29.4277 38.3505 29.7028 37.7705C29.9779 37.1871 30.3607 36.7364 30.8512 36.4182C31.3417 36.0967 31.9085 35.936 32.5515 35.936C33.0487 35.936 33.4431 36.0188 33.7347 36.1845C34.0297 36.3469 34.2551 36.5325 34.4109 36.7414C34.57 36.9468 34.6926 37.1159 34.7788 37.2485H34.8981V36.0354H36.0316V43.8905C36.0316 44.5468 35.8825 45.0804 35.5842 45.4914C35.2892 45.9057 34.8915 46.2089 34.391 46.4012C33.8938 46.5967 33.3403 46.6945 32.7305 46.6945ZM32.6907 42.4985C33.1613 42.4985 33.5591 42.3907 33.8839 42.1753C34.2087 41.9599 34.4556 41.65 34.6246 41.2456C34.7937 40.8413 34.8782 40.3574 34.8782 39.7939C34.8782 39.2437 34.7953 38.7582 34.6296 38.3372C34.4639 37.9163 34.2186 37.5865 33.8938 37.3479C33.569 37.1093 33.168 36.9899 32.6907 36.9899C32.1935 36.9899 31.7792 37.1159 31.4478 37.3678C31.1197 37.6197 30.8728 37.9577 30.707 38.382C30.5446 38.8062 30.4634 39.2769 30.4634 39.7939C30.4634 40.3242 30.5463 40.7932 30.712 41.2009C30.881 41.6052 31.1296 41.9234 31.4577 42.1554C31.7892 42.3841 32.2002 42.4985 32.6907 42.4985ZM39.3526 39.078V43.6718H38.1793V33.4899H39.3526V37.2286H39.4521C39.631 36.8342 39.8995 36.5209 40.2575 36.2889C40.6187 36.0536 41.0993 35.936 41.6992 35.936C42.2196 35.936 42.6753 36.0404 43.0664 36.2492C43.4575 36.4547 43.7608 36.7712 43.9762 37.1987C44.195 37.623 44.3043 38.1632 44.3043 38.8195V43.6718H43.131V38.899C43.131 38.2925 42.9736 37.8235 42.6587 37.4921C42.3472 37.1573 41.9147 36.9899 41.3612 36.9899C40.9767 36.9899 40.632 37.0711 40.3271 37.2335C40.0254 37.3959 39.7868 37.6329 39.6112 37.9445C39.4388 38.256 39.3526 38.6339 39.3526 39.078ZM49.7718 36.0354V37.0297H45.8145V36.0354H49.7718ZM46.9679 34.2058H48.1412V41.4843C48.1412 41.8157 48.1892 42.0643 48.2853 42.23C48.3848 42.3924 48.5107 42.5018 48.6632 42.5581C48.819 42.6111 48.983 42.6377 49.1554 42.6377C49.2846 42.6377 49.3907 42.631 49.4735 42.6178C49.5564 42.6012 49.6227 42.5879 49.6724 42.578L49.911 43.632C49.8315 43.6618 49.7205 43.6916 49.5779 43.7215C49.4354 43.7546 49.2548 43.7712 49.036 43.7712C48.7046 43.7712 48.3798 43.6999 48.0616 43.5574C47.7467 43.4149 47.4849 43.1978 47.2761 42.9061C47.0706 42.6145 46.9679 42.2466 46.9679 41.8024V34.2058ZM56.8091 37.7456L55.7551 38.0439C55.6889 37.8682 55.5911 37.6976 55.4618 37.5318C55.3359 37.3628 55.1635 37.2236 54.9448 37.1142C54.726 37.0048 54.446 36.9502 54.1046 36.9502C53.6373 36.9502 53.2478 37.0579 52.9363 37.2733C52.628 37.4854 52.4739 37.7556 52.4739 38.0837C52.4739 38.3754 52.58 38.6057 52.7921 38.7747C53.0042 38.9438 53.3356 39.0846 53.7864 39.1973L54.9199 39.4757C55.6027 39.6414 56.1114 39.895 56.4462 40.2364C56.781 40.5745 56.9483 41.0103 56.9483 41.5439C56.9483 41.9814 56.8224 42.3725 56.5705 42.7172C56.3219 43.0619 55.9739 43.3337 55.5265 43.5325C55.079 43.7314 54.5587 43.8308 53.9654 43.8308C53.1865 43.8308 52.5418 43.6618 52.0314 43.3237C51.521 42.9857 51.1979 42.4918 51.062 41.8422L52.1756 41.5638C52.2817 41.9748 52.4822 42.283 52.7772 42.4885C53.0755 42.694 53.4649 42.7968 53.9455 42.7968C54.4924 42.7968 54.9266 42.6807 55.248 42.4487C55.5729 42.2134 55.7353 41.9317 55.7353 41.6036C55.7353 41.3384 55.6425 41.1164 55.4569 40.9374C55.2712 40.7551 54.9862 40.6192 54.6017 40.5297L53.329 40.2314C52.6297 40.0657 52.1159 39.8088 51.7878 39.4608C51.463 39.1095 51.3006 38.6703 51.3006 38.1433C51.3006 37.7125 51.4216 37.3313 51.6635 36.9999C51.9088 36.6684 52.2419 36.4083 52.6628 36.2193C53.0871 36.0304 53.5676 35.936 54.1046 35.936C54.8603 35.936 55.4535 36.1017 55.8844 36.4331C56.3186 36.7646 56.6268 37.2021 56.8091 37.7456ZM62.652 43.6718V36.0354H63.7855V37.1888H63.8651C64.0043 36.811 64.2562 36.5044 64.6207 36.2691C64.9853 36.0337 65.3963 35.9161 65.8537 35.9161C65.9399 35.9161 66.0476 35.9177 66.1768 35.921C66.3061 35.9244 66.4039 35.9293 66.4702 35.936V37.1291C66.4304 37.1192 66.3393 37.1043 66.1967 37.0844C66.0575 37.0612 65.91 37.0496 65.7543 37.0496C65.383 37.0496 65.0516 37.1275 64.7599 37.2833C64.4716 37.4357 64.2429 37.6478 64.0739 37.9196C63.9081 38.1881 63.8253 38.4947 63.8253 38.8394V43.6718H62.652ZM70.8303 43.8308C70.0945 43.8308 69.4598 43.6684 68.9261 43.3436C68.3958 43.0155 67.9865 42.5581 67.6982 41.9715C67.4131 41.3815 67.2706 40.6954 67.2706 39.9132C67.2706 39.131 67.4131 38.4416 67.6982 37.845C67.9865 37.2451 68.3875 36.7778 68.9013 36.4431C69.4183 36.105 70.0215 35.936 70.7109 35.936C71.1087 35.936 71.5014 36.0022 71.8892 36.1348C72.277 36.2674 72.63 36.4828 72.9482 36.7811C73.2663 37.0761 73.5199 37.4672 73.7088 37.9544C73.8977 38.4416 73.9922 39.0415 73.9922 39.7541V40.2513H68.1058V39.2371H72.799C72.799 38.8062 72.7128 38.4218 72.5405 38.0837C72.3714 37.7456 72.1295 37.4788 71.8146 37.2833C71.5031 37.0877 71.1352 36.9899 70.7109 36.9899C70.2436 36.9899 69.8393 37.1059 69.4979 37.3379C69.1598 37.5666 68.8996 37.8649 68.7173 38.2328C68.535 38.6007 68.4439 38.9951 68.4439 39.4161V40.0922C68.4439 40.6689 68.5433 41.1578 68.7422 41.5588C68.9444 41.9566 69.2244 42.2598 69.5824 42.4686C69.9403 42.6741 70.3563 42.7769 70.8303 42.7769C71.1385 42.7769 71.4169 42.7338 71.6655 42.6476C71.9174 42.5581 72.1345 42.4255 72.3168 42.2499C72.4991 42.0709 72.6399 41.8488 72.7393 41.5837L73.8729 41.9019C73.7536 42.2863 73.553 42.6244 73.2713 42.9161C72.9896 43.2044 72.6416 43.4298 72.2273 43.5922C71.813 43.7513 71.3473 43.8308 70.8303 43.8308ZM81.1861 37.7456L80.1321 38.0439C80.0658 37.8682 79.968 37.6976 79.8388 37.5318C79.7128 37.3628 79.5405 37.2236 79.3217 37.1142C79.103 37.0048 78.8229 36.9502 78.4815 36.9502C78.0142 36.9502 77.6248 37.0579 77.3132 37.2733C77.005 37.4854 76.8509 37.7556 76.8509 38.0837C76.8509 38.3754 76.9569 38.6057 77.169 38.7747C77.3812 38.9438 77.7126 39.0846 78.1634 39.1973L79.2969 39.4757C79.9796 39.6414 80.4884 39.895 80.8232 40.2364C81.1579 40.5745 81.3253 41.0103 81.3253 41.5439C81.3253 41.9814 81.1993 42.3725 80.9474 42.7172C80.6989 43.0619 80.3509 43.3337 79.9034 43.5325C79.456 43.7314 78.9356 43.8308 78.3423 43.8308C77.5634 43.8308 76.9188 43.6618 76.4084 43.3237C75.898 42.9857 75.5748 42.4918 75.4389 41.8422L76.5526 41.5638C76.6586 41.9748 76.8591 42.283 77.1541 42.4885C77.4524 42.694 77.8419 42.7968 78.3224 42.7968C78.8693 42.7968 79.3035 42.6807 79.625 42.4487C79.9498 42.2134 80.1122 41.9317 80.1122 41.6036C80.1122 41.3384 80.0194 41.1164 79.8338 40.9374C79.6482 40.7551 79.3632 40.6192 78.9787 40.5297L77.706 40.2314C77.0066 40.0657 76.4929 39.8088 76.1648 39.4608C75.84 39.1095 75.6776 38.6703 75.6776 38.1433C75.6776 37.7125 75.7985 37.3313 76.0405 36.9999C76.2857 36.6684 76.6188 36.4083 77.0398 36.2193C77.464 36.0304 77.9446 35.936 78.4815 35.936C79.2372 35.936 79.8305 36.1017 80.2614 36.4331C80.6955 36.7646 81.0038 37.2021 81.1861 37.7456ZM86.2931 43.8308C85.5574 43.8308 84.9226 43.6684 84.389 43.3436C83.8587 43.0155 83.4494 42.5581 83.161 41.9715C82.876 41.3815 82.7335 40.6954 82.7335 39.9132C82.7335 39.131 82.876 38.4416 83.161 37.845C83.4494 37.2451 83.8504 36.7778 84.3642 36.4431C84.8812 36.105 85.4844 35.936 86.1738 35.936C86.5716 35.936 86.9643 36.0022 87.3521 36.1348C87.7399 36.2674 88.0929 36.4828 88.411 36.7811C88.7292 37.0761 88.9828 37.4672 89.1717 37.9544C89.3606 38.4416 89.4551 39.0415 89.4551 39.7541V40.2513H83.5687V39.2371H88.2619C88.2619 38.8062 88.1757 38.4218 88.0034 38.0837C87.8343 37.7456 87.5924 37.4788 87.2775 37.2833C86.966 37.0877 86.5981 36.9899 86.1738 36.9899C85.7065 36.9899 85.3021 37.1059 84.9608 37.3379C84.6227 37.5666 84.3625 37.8649 84.1802 38.2328C83.9979 38.6007 83.9068 38.9951 83.9068 39.4161V40.0922C83.9068 40.6689 84.0062 41.1578 84.2051 41.5588C84.4073 41.9566 84.6873 42.2598 85.0453 42.4686C85.4032 42.6741 85.8192 42.7769 86.2931 42.7769C86.6014 42.7769 86.8798 42.7338 87.1284 42.6476C87.3803 42.5581 87.5974 42.4255 87.7797 42.2499C87.9619 42.0709 88.1028 41.8488 88.2022 41.5837L89.3358 41.9019C89.2164 42.2863 89.0159 42.6244 88.7342 42.9161C88.4525 43.2044 88.1045 43.4298 87.6902 43.5922C87.2759 43.7513 86.8102 43.8308 86.2931 43.8308ZM91.2399 43.6718V36.0354H92.3734V37.1888H92.4529C92.5922 36.811 92.844 36.5044 93.2086 36.2691C93.5732 36.0337 93.9842 35.9161 94.4416 35.9161C94.5278 35.9161 94.6355 35.9177 94.7647 35.921C94.894 35.9244 94.9918 35.9293 95.0581 35.936V37.1291C95.0183 37.1192 94.9271 37.1043 94.7846 37.0844C94.6454 37.0612 94.4979 37.0496 94.3422 37.0496C93.9709 37.0496 93.6395 37.1275 93.3478 37.2833C93.0595 37.4357 92.8308 37.6478 92.6618 37.9196C92.496 38.1881 92.4132 38.4947 92.4132 38.8394V43.6718H91.2399ZM102.926 36.0354L100.102 43.6718H98.9086L96.0847 36.0354H97.3574L99.4654 42.1206H99.5449L101.653 36.0354H102.926ZM107.403 43.8308C106.667 43.8308 106.032 43.6684 105.498 43.3436C104.968 43.0155 104.559 42.5581 104.27 41.9715C103.985 41.3815 103.843 40.6954 103.843 39.9132C103.843 39.131 103.985 38.4416 104.27 37.845C104.559 37.2451 104.96 36.7778 105.474 36.4431C105.991 36.105 106.594 35.936 107.283 35.936C107.681 35.936 108.074 36.0022 108.461 36.1348C108.849 36.2674 109.202 36.4828 109.52 36.7811C109.839 37.0761 110.092 37.4672 110.281 37.9544C110.47 38.4416 110.564 39.0415 110.564 39.7541V40.2513H104.678V39.2371H109.371C109.371 38.8062 109.285 38.4218 109.113 38.0837C108.944 37.7456 108.702 37.4788 108.387 37.2833C108.075 37.0877 107.707 36.9899 107.283 36.9899C106.816 36.9899 106.412 37.1059 106.07 37.3379C105.732 37.5666 105.472 37.8649 105.29 38.2328C105.107 38.6007 105.016 38.9951 105.016 39.4161V40.0922C105.016 40.6689 105.116 41.1578 105.314 41.5588C105.517 41.9566 105.797 42.2598 106.155 42.4686C106.513 42.6741 106.929 42.7769 107.403 42.7769C107.711 42.7769 107.989 42.7338 108.238 42.6476C108.49 42.5581 108.707 42.4255 108.889 42.2499C109.071 42.0709 109.212 41.8488 109.312 41.5837L110.445 41.9019C110.326 42.2863 110.125 42.6244 109.844 42.9161C109.562 43.2044 109.214 43.4298 108.8 43.5922C108.385 43.7513 107.92 43.8308 107.403 43.8308ZM115.233 43.8308C114.596 43.8308 114.035 43.6701 113.547 43.3486C113.06 43.0238 112.679 42.5664 112.404 41.9764C112.129 41.3832 111.991 40.6822 111.991 39.8735C111.991 39.0714 112.129 38.3754 112.404 37.7854C112.679 37.1954 113.062 36.7397 113.552 36.4182C114.043 36.0967 114.61 35.936 115.253 35.936C115.75 35.936 116.143 36.0188 116.431 36.1845C116.723 36.3469 116.945 36.5325 117.097 36.7414C117.253 36.9468 117.374 37.1159 117.46 37.2485H117.559V33.4899H118.733V43.6718H117.599V42.4985H117.46C117.374 42.6377 117.251 42.8133 117.092 43.0254C116.933 43.2343 116.706 43.4215 116.411 43.5872C116.116 43.7496 115.723 43.8308 115.233 43.8308ZM115.392 42.7769C115.863 42.7769 116.26 42.6542 116.585 42.409C116.91 42.1604 117.157 41.8173 117.326 41.3798C117.495 40.939 117.579 40.4303 117.579 39.8536C117.579 39.2835 117.497 38.7847 117.331 38.3571C117.165 37.9263 116.92 37.5915 116.595 37.3529C116.27 37.1109 115.869 36.9899 115.392 36.9899C114.895 36.9899 114.48 37.1175 114.149 37.3727C113.821 37.6246 113.574 37.9677 113.408 38.4019C113.246 38.8327 113.165 39.3166 113.165 39.8536C113.165 40.3971 113.247 40.891 113.413 41.3351C113.582 41.7759 113.831 42.1272 114.159 42.3891C114.49 42.6476 114.901 42.7769 115.392 42.7769Z" fill="#F5F7FA"/>
</g>
<defs>
<clipPath id="clip0_1365_52">
<rect width="350" height="48" fill="white" transform="translate(0 0.671753)"/>
</clipPath>
</defs>
</svg>
